<mxfile host="app.diagrams.net" agent="Mozilla/5.0 (Windows NT 10.0; Win64; x64) AppleWebKit/537.36 (KHTML, like Gecko) Chrome/133.0.0.0 Safari/537.36" version="26.1.0">
  <diagram name="第 1 页" id="JjAhJUpeRirN_-w8hsYV">
    <mxGraphModel dx="3642" dy="2124" grid="1" gridSize="10" guides="1" tooltips="1" connect="1" arrows="1" fold="1" page="1" pageScale="1" pageWidth="827" pageHeight="1169" math="0" shadow="0">
      <root>
        <mxCell id="0" />
        <mxCell id="1" parent="0" />
        <mxCell id="cCkPG6rzrQ6bPVn2WC5E-66" value="任务迁移" style="rounded=0;whiteSpace=wrap;html=1;fillColor=#ffe6cc;strokeColor=#d79b00;verticalAlign=bottom;labelPosition=center;verticalLabelPosition=middle;align=center;fontSize=20;" vertex="1" parent="1">
          <mxGeometry x="-1490" y="660" width="830" height="590" as="geometry" />
        </mxCell>
        <mxCell id="cCkPG6rzrQ6bPVn2WC5E-35" value="调接口触发" style="html=1;aspect=fixed;align=center;labelPosition=center;verticalLabelPosition=middle;verticalAlign=top;fillColor=#dae8fc;strokeColor=#6c8ebf;spacingBottom=10;labelBorderColor=none;fontSize=20;fontColor=light-dark(#330000,#6CA7FF);" vertex="1" parent="1">
          <mxGeometry x="-1384" y="70" width="560" height="560" as="geometry" />
        </mxCell>
        <mxCell id="cCkPG6rzrQ6bPVn2WC5E-31" value="XtimerWebController" style="ellipse;whiteSpace=wrap;html=1;" vertex="1" parent="1">
          <mxGeometry x="-1210" y="140" width="340" height="200" as="geometry" />
        </mxCell>
        <mxCell id="cCkPG6rzrQ6bPVn2WC5E-6" value="&lt;div&gt;&lt;br&gt;&lt;/div&gt;&lt;div&gt;&lt;br&gt;&lt;/div&gt;&lt;div&gt;&lt;br&gt;&lt;/div&gt;&lt;div&gt;&lt;br&gt;&lt;/div&gt;&lt;div&gt;&lt;br&gt;&lt;/div&gt;MigratorManager" style="ellipse;whiteSpace=wrap;html=1;" vertex="1" parent="1">
          <mxGeometry x="-1300" y="712" width="240" height="110" as="geometry" />
        </mxCell>
        <mxCell id="cCkPG6rzrQ6bPVn2WC5E-18" value="" style="edgeStyle=orthogonalEdgeStyle;rounded=0;orthogonalLoop=1;jettySize=auto;html=1;" edge="1" parent="1" source="cCkPG6rzrQ6bPVn2WC5E-7" target="cCkPG6rzrQ6bPVn2WC5E-17">
          <mxGeometry relative="1" as="geometry" />
        </mxCell>
        <mxCell id="cCkPG6rzrQ6bPVn2WC5E-22" value="" style="edgeStyle=orthogonalEdgeStyle;rounded=0;orthogonalLoop=1;jettySize=auto;html=1;entryX=0.494;entryY=0.073;entryDx=0;entryDy=0;entryPerimeter=0;" edge="1" parent="1" source="cCkPG6rzrQ6bPVn2WC5E-8" target="cCkPG6rzrQ6bPVn2WC5E-19">
          <mxGeometry relative="1" as="geometry">
            <mxPoint x="-820" y="280" as="targetPoint" />
          </mxGeometry>
        </mxCell>
        <mxCell id="cCkPG6rzrQ6bPVn2WC5E-17" value="数据库插入" style="ellipse;shape=cloud;whiteSpace=wrap;html=1;rounded=0;" vertex="1" parent="1">
          <mxGeometry x="-1390" y="240" width="120" height="80" as="geometry" />
        </mxCell>
        <mxCell id="cCkPG6rzrQ6bPVn2WC5E-24" value="" style="edgeStyle=orthogonalEdgeStyle;rounded=0;orthogonalLoop=1;jettySize=auto;html=1;" edge="1" parent="1" source="cCkPG6rzrQ6bPVn2WC5E-19" target="cCkPG6rzrQ6bPVn2WC5E-23">
          <mxGeometry relative="1" as="geometry" />
        </mxCell>
        <mxCell id="cCkPG6rzrQ6bPVn2WC5E-25" value="拿到分布式锁" style="edgeLabel;html=1;align=center;verticalAlign=middle;resizable=0;points=[];" vertex="1" connectable="0" parent="cCkPG6rzrQ6bPVn2WC5E-24">
          <mxGeometry x="-0.1333" y="-3" relative="1" as="geometry">
            <mxPoint as="offset" />
          </mxGeometry>
        </mxCell>
        <mxCell id="cCkPG6rzrQ6bPVn2WC5E-19" value="加分布式锁3s过期，对同一个app，&lt;div&gt;三秒内只能有一个线程操作&lt;/div&gt;" style="ellipse;shape=cloud;whiteSpace=wrap;html=1;rounded=0;" vertex="1" parent="1">
          <mxGeometry x="-1094" y="360" width="270" height="120" as="geometry" />
        </mxCell>
        <mxCell id="cCkPG6rzrQ6bPVn2WC5E-27" value="" style="edgeStyle=orthogonalEdgeStyle;rounded=0;orthogonalLoop=1;jettySize=auto;html=1;" edge="1" parent="1" source="cCkPG6rzrQ6bPVn2WC5E-23" target="cCkPG6rzrQ6bPVn2WC5E-26">
          <mxGeometry relative="1" as="geometry" />
        </mxCell>
        <mxCell id="cCkPG6rzrQ6bPVn2WC5E-23" value="doEnbaleTimer" style="whiteSpace=wrap;html=1;rounded=0;" vertex="1" parent="1">
          <mxGeometry x="-1020" y="540" width="120" height="60" as="geometry" />
        </mxCell>
        <mxCell id="cCkPG6rzrQ6bPVn2WC5E-34" value="" style="edgeStyle=orthogonalEdgeStyle;rounded=0;orthogonalLoop=1;jettySize=auto;html=1;" edge="1" parent="1" source="cCkPG6rzrQ6bPVn2WC5E-26" target="cCkPG6rzrQ6bPVn2WC5E-32">
          <mxGeometry relative="1" as="geometry" />
        </mxCell>
        <mxCell id="cCkPG6rzrQ6bPVn2WC5E-26" value="修改TImer状态&lt;div&gt;为激活，调用任务迁移&lt;/div&gt;" style="ellipse;shape=cloud;whiteSpace=wrap;html=1;rounded=0;" vertex="1" parent="1">
          <mxGeometry x="-1280" y="530" width="200" height="80" as="geometry" />
        </mxCell>
        <mxCell id="cCkPG6rzrQ6bPVn2WC5E-7" value="createrTime" style="rounded=0;whiteSpace=wrap;html=1;" vertex="1" parent="1">
          <mxGeometry x="-1190" y="250" width="120" height="60" as="geometry" />
        </mxCell>
        <mxCell id="cCkPG6rzrQ6bPVn2WC5E-8" value="enableTimer" style="rounded=0;whiteSpace=wrap;html=1;" vertex="1" parent="1">
          <mxGeometry x="-1020" y="250" width="120" height="60" as="geometry" />
        </mxCell>
        <mxCell id="cCkPG6rzrQ6bPVn2WC5E-32" value="migrateTimer" style="rounded=0;whiteSpace=wrap;html=1;" vertex="1" parent="1">
          <mxGeometry x="-1240" y="722" width="120" height="60" as="geometry" />
        </mxCell>
        <mxCell id="cCkPG6rzrQ6bPVn2WC5E-36" value="&lt;div&gt;&lt;br&gt;&lt;/div&gt;&lt;div&gt;&lt;br&gt;&lt;/div&gt;&lt;div&gt;&lt;br&gt;&lt;/div&gt;&lt;div&gt;&lt;br&gt;&lt;/div&gt;&lt;div&gt;&lt;br&gt;&lt;/div&gt;MigratorWork" style="ellipse;whiteSpace=wrap;html=1;" vertex="1" parent="1">
          <mxGeometry x="-1330" y="1010" width="330" height="205" as="geometry" />
        </mxCell>
        <mxCell id="cCkPG6rzrQ6bPVn2WC5E-40" value="" style="edgeStyle=orthogonalEdgeStyle;rounded=0;orthogonalLoop=1;jettySize=auto;html=1;" edge="1" parent="1" source="cCkPG6rzrQ6bPVn2WC5E-38" target="cCkPG6rzrQ6bPVn2WC5E-39">
          <mxGeometry relative="1" as="geometry" />
        </mxCell>
        <mxCell id="cCkPG6rzrQ6bPVn2WC5E-38" value="work&lt;div&gt;(10s执行一次)&lt;/div&gt;" style="rounded=0;whiteSpace=wrap;html=1;" vertex="1" parent="1">
          <mxGeometry x="-1160" y="1050" width="120" height="60" as="geometry" />
        </mxCell>
        <mxCell id="cCkPG6rzrQ6bPVn2WC5E-43" value="" style="edgeStyle=orthogonalEdgeStyle;rounded=0;orthogonalLoop=1;jettySize=auto;html=1;exitX=0.875;exitY=0.5;exitDx=0;exitDy=0;exitPerimeter=0;" edge="1" parent="1" source="cCkPG6rzrQ6bPVn2WC5E-39" target="cCkPG6rzrQ6bPVn2WC5E-41">
          <mxGeometry relative="1" as="geometry">
            <mxPoint x="-1090" y="833" as="targetPoint" />
          </mxGeometry>
        </mxCell>
        <mxCell id="cCkPG6rzrQ6bPVn2WC5E-39" value="加分布式锁，&lt;div&gt;60s过期&lt;/div&gt;" style="ellipse;shape=cloud;whiteSpace=wrap;html=1;rounded=0;" vertex="1" parent="1">
          <mxGeometry x="-1160" y="850" width="120" height="80" as="geometry" />
        </mxCell>
        <mxCell id="cCkPG6rzrQ6bPVn2WC5E-45" value="" style="edgeStyle=orthogonalEdgeStyle;rounded=0;orthogonalLoop=1;jettySize=auto;html=1;entryX=0.16;entryY=0.55;entryDx=0;entryDy=0;entryPerimeter=0;" edge="1" parent="1" source="cCkPG6rzrQ6bPVn2WC5E-41" target="cCkPG6rzrQ6bPVn2WC5E-44">
          <mxGeometry relative="1" as="geometry">
            <mxPoint x="-1520" y="732" as="targetPoint" />
          </mxGeometry>
        </mxCell>
        <mxCell id="cCkPG6rzrQ6bPVn2WC5E-41" value="migrate" style="rounded=0;whiteSpace=wrap;html=1;" vertex="1" parent="1">
          <mxGeometry x="-1290" y="1050" width="120" height="60" as="geometry" />
        </mxCell>
        <mxCell id="cCkPG6rzrQ6bPVn2WC5E-46" value="" style="edgeStyle=orthogonalEdgeStyle;rounded=0;orthogonalLoop=1;jettySize=auto;html=1;exitX=0.875;exitY=0.5;exitDx=0;exitDy=0;exitPerimeter=0;" edge="1" parent="1" source="cCkPG6rzrQ6bPVn2WC5E-44" target="cCkPG6rzrQ6bPVn2WC5E-32">
          <mxGeometry relative="1" as="geometry" />
        </mxCell>
        <mxCell id="cCkPG6rzrQ6bPVn2WC5E-44" value="查找所有激活的Timer&lt;div&gt;&lt;span style=&quot;background-color: transparent; color: light-dark(rgb(0, 0, 0), rgb(255, 255, 255));&quot;&gt;执行迁移&lt;/span&gt;&lt;/div&gt;" style="ellipse;shape=cloud;whiteSpace=wrap;html=1;rounded=0;" vertex="1" parent="1">
          <mxGeometry x="-1490" y="712" width="150" height="80" as="geometry" />
        </mxCell>
        <mxCell id="cCkPG6rzrQ6bPVn2WC5E-62" value="" style="edgeStyle=orthogonalEdgeStyle;rounded=0;orthogonalLoop=1;jettySize=auto;html=1;entryX=0.019;entryY=0.188;entryDx=0;entryDy=0;entryPerimeter=0;" edge="1" parent="1" target="cCkPG6rzrQ6bPVn2WC5E-47">
          <mxGeometry relative="1" as="geometry">
            <mxPoint x="-1126.9999999999998" y="752.9655172413793" as="sourcePoint" />
            <mxPoint x="-1023.8200000000002" y="757" as="targetPoint" />
          </mxGeometry>
        </mxCell>
        <mxCell id="cCkPG6rzrQ6bPVn2WC5E-64" value="执行逻辑" style="edgeLabel;html=1;align=center;verticalAlign=middle;resizable=0;points=[];" vertex="1" connectable="0" parent="cCkPG6rzrQ6bPVn2WC5E-62">
          <mxGeometry x="0.132" y="3" relative="1" as="geometry">
            <mxPoint as="offset" />
          </mxGeometry>
        </mxCell>
        <mxCell id="cCkPG6rzrQ6bPVn2WC5E-47" value="" style="shape=process;whiteSpace=wrap;html=1;backgroundOutline=1;" vertex="1" parent="1">
          <mxGeometry x="-940" y="693" width="260" height="320" as="geometry" />
        </mxCell>
        <mxCell id="cCkPG6rzrQ6bPVn2WC5E-54" value="" style="edgeStyle=orthogonalEdgeStyle;rounded=0;orthogonalLoop=1;jettySize=auto;html=1;" edge="1" parent="1" source="cCkPG6rzrQ6bPVn2WC5E-48" target="cCkPG6rzrQ6bPVn2WC5E-53">
          <mxGeometry relative="1" as="geometry" />
        </mxCell>
        <mxCell id="cCkPG6rzrQ6bPVn2WC5E-55" value="Y" style="edgeLabel;html=1;align=center;verticalAlign=middle;resizable=0;points=[];" vertex="1" connectable="0" parent="cCkPG6rzrQ6bPVn2WC5E-54">
          <mxGeometry x="-0.7155" y="-3" relative="1" as="geometry">
            <mxPoint as="offset" />
          </mxGeometry>
        </mxCell>
        <mxCell id="cCkPG6rzrQ6bPVn2WC5E-48" value="Timer状态是否激活" style="rhombus;whiteSpace=wrap;html=1;" vertex="1" parent="1">
          <mxGeometry x="-885" y="705" width="150" height="45" as="geometry" />
        </mxCell>
        <mxCell id="cCkPG6rzrQ6bPVn2WC5E-57" value="" style="edgeStyle=orthogonalEdgeStyle;rounded=0;orthogonalLoop=1;jettySize=auto;html=1;" edge="1" parent="1" source="cCkPG6rzrQ6bPVn2WC5E-53" target="cCkPG6rzrQ6bPVn2WC5E-56">
          <mxGeometry relative="1" as="geometry" />
        </mxCell>
        <mxCell id="cCkPG6rzrQ6bPVn2WC5E-58" value="Y" style="edgeLabel;html=1;align=center;verticalAlign=middle;resizable=0;points=[];" vertex="1" connectable="0" parent="cCkPG6rzrQ6bPVn2WC5E-57">
          <mxGeometry x="-0.3281" y="-1" relative="1" as="geometry">
            <mxPoint as="offset" />
          </mxGeometry>
        </mxCell>
        <mxCell id="cCkPG6rzrQ6bPVn2WC5E-53" value="cron表达式是否合法" style="rhombus;whiteSpace=wrap;html=1;" vertex="1" parent="1">
          <mxGeometry x="-885" y="774" width="150" height="45" as="geometry" />
        </mxCell>
        <mxCell id="cCkPG6rzrQ6bPVn2WC5E-60" value="" style="edgeStyle=orthogonalEdgeStyle;rounded=0;orthogonalLoop=1;jettySize=auto;html=1;" edge="1" parent="1" source="cCkPG6rzrQ6bPVn2WC5E-56" target="cCkPG6rzrQ6bPVn2WC5E-59">
          <mxGeometry relative="1" as="geometry" />
        </mxCell>
        <mxCell id="cCkPG6rzrQ6bPVn2WC5E-56" value="获取当前时间+两个小时&lt;div&gt;执行时刻的时间戳&lt;/div&gt;" style="shape=trapezoid;perimeter=trapezoidPerimeter;whiteSpace=wrap;html=1;fixedSize=1;" vertex="1" parent="1">
          <mxGeometry x="-891.5" y="850" width="161" height="60" as="geometry" />
        </mxCell>
        <mxCell id="cCkPG6rzrQ6bPVn2WC5E-59" value="构造Task列表&lt;div&gt;插入数据库&lt;/div&gt;&lt;div&gt;用ignore跳过重复的任务&lt;/div&gt;" style="shape=trapezoid;perimeter=trapezoidPerimeter;whiteSpace=wrap;html=1;fixedSize=1;" vertex="1" parent="1">
          <mxGeometry x="-885" y="940" width="147" height="70" as="geometry" />
        </mxCell>
        <mxCell id="cCkPG6rzrQ6bPVn2WC5E-67" value="任务执行" style="rounded=0;whiteSpace=wrap;html=1;fillColor=#d5e8d4;strokeColor=#82b366;verticalAlign=top;labelPosition=center;verticalLabelPosition=middle;align=center;fontSize=20;" vertex="1" parent="1">
          <mxGeometry x="-767" y="-130" width="1027" height="785" as="geometry" />
        </mxCell>
        <mxCell id="cCkPG6rzrQ6bPVn2WC5E-68" value="SchedulerWorker" style="ellipse;whiteSpace=wrap;html=1;verticalAlign=top;" vertex="1" parent="1">
          <mxGeometry x="-735" y="-110" width="370" height="200" as="geometry" />
        </mxCell>
        <mxCell id="cCkPG6rzrQ6bPVn2WC5E-69" value="TaskCache" style="ellipse;whiteSpace=wrap;html=1;verticalAlign=bottom;" vertex="1" parent="1">
          <mxGeometry x="-485" y="735" width="395" height="205" as="geometry" />
        </mxCell>
        <mxCell id="cCkPG6rzrQ6bPVn2WC5E-70" value="cacheSaveTasks" style="rounded=0;whiteSpace=wrap;html=1;" vertex="1" parent="1">
          <mxGeometry x="-460" y="792" width="100" height="48" as="geometry" />
        </mxCell>
        <mxCell id="cCkPG6rzrQ6bPVn2WC5E-71" value="GetTableName" style="rounded=0;whiteSpace=wrap;html=1;" vertex="1" parent="1">
          <mxGeometry x="-350" y="792" width="100" height="48" as="geometry" />
        </mxCell>
        <mxCell id="cCkPG6rzrQ6bPVn2WC5E-72" value="getTasksFromCache" style="rounded=0;whiteSpace=wrap;html=1;" vertex="1" parent="1">
          <mxGeometry x="-240" y="792" width="120" height="48" as="geometry" />
        </mxCell>
        <mxCell id="cCkPG6rzrQ6bPVn2WC5E-74" value="" style="edgeStyle=orthogonalEdgeStyle;rounded=0;orthogonalLoop=1;jettySize=auto;html=1;" edge="1" parent="1" source="cCkPG6rzrQ6bPVn2WC5E-59" target="cCkPG6rzrQ6bPVn2WC5E-70">
          <mxGeometry relative="1" as="geometry">
            <mxPoint x="-653.0000000000002" y="975" as="targetPoint" />
          </mxGeometry>
        </mxCell>
        <mxCell id="cCkPG6rzrQ6bPVn2WC5E-75" value="插入redis，以分钟分片，timerId分桶&lt;div&gt;timerId_启动时间戳 为value&lt;/div&gt;&lt;div&gt;启动时间戳为 score&lt;/div&gt;" style="edgeLabel;html=1;align=center;verticalAlign=middle;resizable=0;points=[];" vertex="1" connectable="0" parent="cCkPG6rzrQ6bPVn2WC5E-74">
          <mxGeometry x="-0.2582" y="2" relative="1" as="geometry">
            <mxPoint as="offset" />
          </mxGeometry>
        </mxCell>
        <mxCell id="cCkPG6rzrQ6bPVn2WC5E-80" value="" style="edgeStyle=orthogonalEdgeStyle;rounded=0;orthogonalLoop=1;jettySize=auto;html=1;" edge="1" parent="1" source="cCkPG6rzrQ6bPVn2WC5E-76" target="cCkPG6rzrQ6bPVn2WC5E-77">
          <mxGeometry relative="1" as="geometry">
            <mxPoint x="-630" y="278" as="targetPoint" />
          </mxGeometry>
        </mxCell>
        <mxCell id="cCkPG6rzrQ6bPVn2WC5E-76" value="scheduledTask&lt;div&gt;(1s一次)&lt;/div&gt;" style="rounded=0;whiteSpace=wrap;html=1;" vertex="1" parent="1">
          <mxGeometry x="-668" y="-60" width="100" height="48" as="geometry" />
        </mxCell>
        <mxCell id="cCkPG6rzrQ6bPVn2WC5E-82" value="" style="edgeStyle=orthogonalEdgeStyle;rounded=0;orthogonalLoop=1;jettySize=auto;html=1;" edge="1" parent="1" source="cCkPG6rzrQ6bPVn2WC5E-77" target="cCkPG6rzrQ6bPVn2WC5E-78">
          <mxGeometry relative="1" as="geometry">
            <mxPoint x="-520" y="278" as="targetPoint" />
          </mxGeometry>
        </mxCell>
        <mxCell id="cCkPG6rzrQ6bPVn2WC5E-77" value="handleSlices&lt;br&gt;&lt;div&gt;(执行每个桶)&lt;/div&gt;" style="rounded=0;whiteSpace=wrap;html=1;" vertex="1" parent="1">
          <mxGeometry x="-552" y="-60" width="100" height="48" as="geometry" />
        </mxCell>
        <mxCell id="cCkPG6rzrQ6bPVn2WC5E-84" value="" style="edgeStyle=orthogonalEdgeStyle;rounded=0;orthogonalLoop=1;jettySize=auto;html=1;" edge="1" parent="1" source="cCkPG6rzrQ6bPVn2WC5E-78" target="cCkPG6rzrQ6bPVn2WC5E-83">
          <mxGeometry relative="1" as="geometry" />
        </mxCell>
        <mxCell id="cCkPG6rzrQ6bPVn2WC5E-78" value="handleSlice&lt;br&gt;&lt;div&gt;(执行)&lt;/div&gt;" style="rounded=0;whiteSpace=wrap;html=1;" vertex="1" parent="1">
          <mxGeometry x="-552" y="6" width="100" height="48" as="geometry" />
        </mxCell>
        <mxCell id="cCkPG6rzrQ6bPVn2WC5E-83" value="执行前一分钟的任务(重试)&lt;div&gt;执行当前分钟的任务&lt;/div&gt;" style="ellipse;shape=cloud;whiteSpace=wrap;html=1;rounded=0;" vertex="1" parent="1">
          <mxGeometry x="-194" y="-70" width="197" height="80" as="geometry" />
        </mxCell>
        <mxCell id="cCkPG6rzrQ6bPVn2WC5E-85" value="SchedulerTask" style="ellipse;whiteSpace=wrap;html=1;verticalAlign=bottom;" vertex="1" parent="1">
          <mxGeometry x="-237" y="120" width="283" height="150" as="geometry" />
        </mxCell>
        <mxCell id="cCkPG6rzrQ6bPVn2WC5E-89" value="" style="edgeStyle=orthogonalEdgeStyle;rounded=0;orthogonalLoop=1;jettySize=auto;html=1;" edge="1" parent="1" source="cCkPG6rzrQ6bPVn2WC5E-86" target="cCkPG6rzrQ6bPVn2WC5E-88">
          <mxGeometry relative="1" as="geometry" />
        </mxCell>
        <mxCell id="cCkPG6rzrQ6bPVn2WC5E-86" value="asyncHandleSlice&lt;div&gt;(线程池异步执行)&lt;/div&gt;" style="rounded=0;whiteSpace=wrap;html=1;" vertex="1" parent="1">
          <mxGeometry x="-145.5" y="60" width="100" height="48" as="geometry" />
        </mxCell>
        <mxCell id="cCkPG6rzrQ6bPVn2WC5E-87" value="" style="edgeStyle=orthogonalEdgeStyle;rounded=0;orthogonalLoop=1;jettySize=auto;html=1;" edge="1" parent="1" source="cCkPG6rzrQ6bPVn2WC5E-83" target="cCkPG6rzrQ6bPVn2WC5E-86">
          <mxGeometry relative="1" as="geometry" />
        </mxCell>
        <mxCell id="cCkPG6rzrQ6bPVn2WC5E-88" value="加分布式锁70s过期&lt;div&gt;调用trigger执行任务&lt;/div&gt;&lt;div&gt;执行成功后重设锁时间为130s&lt;/div&gt;" style="ellipse;shape=cloud;whiteSpace=wrap;html=1;rounded=0;" vertex="1" parent="1">
          <mxGeometry x="-208.75" y="177" width="226.5" height="78" as="geometry" />
        </mxCell>
        <mxCell id="cCkPG6rzrQ6bPVn2WC5E-90" value="TriggerWorker" style="ellipse;whiteSpace=wrap;html=1;verticalAlign=bottom;" vertex="1" parent="1">
          <mxGeometry x="-292" y="270" width="283" height="150" as="geometry" />
        </mxCell>
        <mxCell id="cCkPG6rzrQ6bPVn2WC5E-95" value="" style="edgeStyle=orthogonalEdgeStyle;rounded=0;orthogonalLoop=1;jettySize=auto;html=1;" edge="1" parent="1" source="cCkPG6rzrQ6bPVn2WC5E-91" target="cCkPG6rzrQ6bPVn2WC5E-94">
          <mxGeometry relative="1" as="geometry" />
        </mxCell>
        <mxCell id="cCkPG6rzrQ6bPVn2WC5E-91" value="work" style="rounded=0;whiteSpace=wrap;html=1;" vertex="1" parent="1">
          <mxGeometry x="-145.5" y="300" width="100" height="48" as="geometry" />
        </mxCell>
        <mxCell id="cCkPG6rzrQ6bPVn2WC5E-93" value="" style="edgeStyle=orthogonalEdgeStyle;rounded=0;orthogonalLoop=1;jettySize=auto;html=1;" edge="1" parent="1" source="cCkPG6rzrQ6bPVn2WC5E-88" target="cCkPG6rzrQ6bPVn2WC5E-91">
          <mxGeometry relative="1" as="geometry">
            <mxPoint x="-296.74999999999955" y="396" as="targetPoint" />
          </mxGeometry>
        </mxCell>
        <mxCell id="cCkPG6rzrQ6bPVn2WC5E-94" value="创建定时器Timer&lt;div&gt;创建任务TriggerTimerTask&lt;/div&gt;&lt;div&gt;每秒执行一次任务，执行60s&lt;/div&gt;&lt;div&gt;使用CountDownLatch等待任务执行完&lt;/div&gt;" style="ellipse;shape=cloud;whiteSpace=wrap;html=1;rounded=0;" vertex="1" parent="1">
          <mxGeometry x="-482" y="149" width="260" height="134" as="geometry" />
        </mxCell>
        <mxCell id="cCkPG6rzrQ6bPVn2WC5E-96" value="TriggerTimerTask" style="ellipse;whiteSpace=wrap;html=1;verticalAlign=bottom;" vertex="1" parent="1">
          <mxGeometry x="-720.75" y="260" width="341.5" height="220" as="geometry" />
        </mxCell>
        <mxCell id="cCkPG6rzrQ6bPVn2WC5E-101" value="" style="edgeStyle=orthogonalEdgeStyle;rounded=0;orthogonalLoop=1;jettySize=auto;html=1;" edge="1" parent="1" source="cCkPG6rzrQ6bPVn2WC5E-99" target="cCkPG6rzrQ6bPVn2WC5E-100">
          <mxGeometry relative="1" as="geometry" />
        </mxCell>
        <mxCell id="cCkPG6rzrQ6bPVn2WC5E-99" value="run&lt;div&gt;执行60s&lt;/div&gt;&lt;div&gt;到时间latch-1&lt;/div&gt;&lt;div&gt;执行线程取消timer&lt;/div&gt;" style="rounded=0;whiteSpace=wrap;html=1;" vertex="1" parent="1">
          <mxGeometry x="-687" y="311" width="110" height="68" as="geometry" />
        </mxCell>
        <mxCell id="cCkPG6rzrQ6bPVn2WC5E-98" value="" style="edgeStyle=orthogonalEdgeStyle;rounded=0;orthogonalLoop=1;jettySize=auto;html=1;entryX=0.75;entryY=0;entryDx=0;entryDy=0;" edge="1" parent="1" source="cCkPG6rzrQ6bPVn2WC5E-94" target="cCkPG6rzrQ6bPVn2WC5E-99">
          <mxGeometry relative="1" as="geometry">
            <mxPoint x="-569.9999999999998" y="396" as="targetPoint" />
          </mxGeometry>
        </mxCell>
        <mxCell id="cCkPG6rzrQ6bPVn2WC5E-100" value="handleBatch&lt;div&gt;&lt;br&gt;&lt;/div&gt;&lt;div&gt;从zset取出这一秒的任务执行，缓存没有，走数据库&lt;/div&gt;" style="rounded=0;whiteSpace=wrap;html=1;" vertex="1" parent="1">
          <mxGeometry x="-536" y="301" width="116" height="89" as="geometry" />
        </mxCell>
        <mxCell id="cCkPG6rzrQ6bPVn2WC5E-113" value="TriggerPoolTask" style="ellipse;whiteSpace=wrap;html=1;verticalAlign=bottom;" vertex="1" parent="1">
          <mxGeometry x="-588.75" y="495" width="221.5" height="160" as="geometry" />
        </mxCell>
        <mxCell id="cCkPG6rzrQ6bPVn2WC5E-117" value="" style="edgeStyle=orthogonalEdgeStyle;rounded=0;orthogonalLoop=1;jettySize=auto;html=1;exitX=0.5;exitY=1;exitDx=0;exitDy=0;" edge="1" parent="1" source="cCkPG6rzrQ6bPVn2WC5E-100" target="cCkPG6rzrQ6bPVn2WC5E-114">
          <mxGeometry relative="1" as="geometry">
            <mxPoint x="-344.5" y="560.5000000000005" as="sourcePoint" />
          </mxGeometry>
        </mxCell>
        <mxCell id="cCkPG6rzrQ6bPVn2WC5E-114" value="runExecutor&lt;div&gt;线程池异步执行&lt;/div&gt;" style="rounded=0;whiteSpace=wrap;html=1;" vertex="1" parent="1">
          <mxGeometry x="-524.75" y="536" width="93.5" height="49" as="geometry" />
        </mxCell>
        <mxCell id="cCkPG6rzrQ6bPVn2WC5E-118" value="ExecutorWork" style="ellipse;whiteSpace=wrap;html=1;verticalAlign=bottom;" vertex="1" parent="1">
          <mxGeometry x="-310" y="473.5" width="511.5" height="175" as="geometry" />
        </mxCell>
        <mxCell id="cCkPG6rzrQ6bPVn2WC5E-119" value="work&lt;div&gt;判断任务是否重复执行&lt;/div&gt;" style="rounded=0;whiteSpace=wrap;html=1;" vertex="1" parent="1">
          <mxGeometry x="-292" y="536.5" width="93.5" height="49" as="geometry" />
        </mxCell>
        <mxCell id="cCkPG6rzrQ6bPVn2WC5E-123" value="" style="edgeStyle=orthogonalEdgeStyle;rounded=0;orthogonalLoop=1;jettySize=auto;html=1;" edge="1" parent="1" source="cCkPG6rzrQ6bPVn2WC5E-119" target="cCkPG6rzrQ6bPVn2WC5E-120">
          <mxGeometry relative="1" as="geometry" />
        </mxCell>
        <mxCell id="cCkPG6rzrQ6bPVn2WC5E-120" value="executeAndPostProcess&lt;div&gt;做回调前的准备工作&lt;/div&gt;&lt;div&gt;timer是否存在，是否激活，计算触发时间与设置时间的误差&lt;/div&gt;&lt;div&gt;回调执行完后做后置处理&lt;/div&gt;&lt;div&gt;更新数据库task状态&lt;/div&gt;" style="rounded=0;whiteSpace=wrap;html=1;" vertex="1" parent="1">
          <mxGeometry x="-172.5" y="510" width="163.5" height="100" as="geometry" />
        </mxCell>
        <mxCell id="cCkPG6rzrQ6bPVn2WC5E-122" value="" style="edgeStyle=orthogonalEdgeStyle;rounded=0;orthogonalLoop=1;jettySize=auto;html=1;" edge="1" parent="1" source="cCkPG6rzrQ6bPVn2WC5E-120" target="cCkPG6rzrQ6bPVn2WC5E-121">
          <mxGeometry relative="1" as="geometry" />
        </mxCell>
        <mxCell id="cCkPG6rzrQ6bPVn2WC5E-121" value="executeTimerCallBack&lt;div&gt;根据回调参数执行请求，告知调用方&lt;/div&gt;" style="rounded=0;whiteSpace=wrap;html=1;" vertex="1" parent="1">
          <mxGeometry x="17.75" y="536.5" width="163.5" height="49" as="geometry" />
        </mxCell>
        <mxCell id="cCkPG6rzrQ6bPVn2WC5E-126" value="" style="edgeStyle=orthogonalEdgeStyle;rounded=0;orthogonalLoop=1;jettySize=auto;html=1;" edge="1" parent="1" source="cCkPG6rzrQ6bPVn2WC5E-114" target="cCkPG6rzrQ6bPVn2WC5E-119">
          <mxGeometry relative="1" as="geometry">
            <mxPoint x="-364.5" y="560.5000000000005" as="targetPoint" />
          </mxGeometry>
        </mxCell>
      </root>
    </mxGraphModel>
  </diagram>
</mxfile>
